<svg width="116" height="116" viewBox="0 0 116 116" fill="none" xmlns="http://www.w3.org/2000/svg">
<path fill-rule="evenodd" clip-rule="evenodd" d="M103.79 54.9505C103.79 81.9266 81.9243 103.793 54.9482 103.793C27.9751 103.793 6.10608 81.9266 6.10608 54.9505C6.10608 27.9774 27.9751 6.1084 54.9482 6.1084C81.9243 6.1084 103.79 27.9774 103.79 54.9505Z" fill="#2C3842"/>
<mask id="mask0_1_1125" style="mask-type:luminance" maskUnits="userSpaceOnUse" x="6" y="6" width="98" height="98">
<path d="M103.789 54.9513C103.789 67.905 98.6435 80.3282 89.4838 89.4878C80.3242 98.6475 67.9011 103.793 54.9474 103.793C41.9937 103.793 29.5705 98.6475 20.4109 89.4878C11.2512 80.3282 6.10541 67.905 6.10541 54.9513C6.10541 41.9976 11.2512 29.5745 20.4109 20.4148C29.5705 11.2552 41.9937 6.10938 54.9474 6.10938C67.9011 6.10938 80.3242 11.2552 89.4838 20.4148C98.6435 29.5745 103.789 41.9976 103.789 54.9513Z" fill="white"/>
</mask>
<g mask="url(#mask0_1_1125)">
<path d="M44.5575 73.6111C45.1619 73.4981 34.7647 77.778 20.1059 85.7698C17.267 87.3205 16.3146 90.2785 16.3146 93.5143V104.418H93.5767V92.2507C93.5767 89.3507 90.8965 86.6977 88.3628 85.2965C77.4161 79.2401 63.8746 73.3333 64.073 73.2936L44.5575 73.6111Z" fill="#B5BDC4"/>
</g>
<path d="M64.3856 75.8243C64.3856 78.5049 63.3207 81.0757 61.4253 82.9712C59.5298 84.8667 56.959 85.9316 54.2783 85.9316C51.5977 85.9316 49.0269 84.8667 47.1314 82.9712C45.236 81.0757 44.1711 78.5049 44.1711 75.8243C44.1711 73.1437 45.236 70.5729 47.1314 68.6774C49.0269 66.7819 51.5977 65.717 54.2783 65.717C56.959 65.717 59.5298 66.7819 61.4253 68.6774C63.3207 70.5729 64.3856 73.1437 64.3856 75.8243Z" fill="#FFCCAA"/>
<path d="M53.577 16.0264C62.1457 16.0264 71.6577 23.8808 71.1601 33.6065L70.052 55.1153C69.5514 64.841 59.6975 72.4146 53.577 72.4146C47.4564 72.4146 37.6025 64.841 37.1019 55.1153L35.9968 33.6065C35.4962 23.8808 45.0113 16.0233 53.58 16.0233L53.577 16.0264Z" fill="#FFCCAA"/>
<path d="M74.6484 51.3666C74.6941 55.4114 72.7038 58.7113 70.2037 58.7387C67.7067 58.7693 65.6431 55.5121 65.5973 51.4674C65.5515 47.4257 67.5418 44.1227 70.0419 44.0953C72.542 44.0678 74.6026 47.3249 74.6484 51.3666ZM41.9058 51.3666C41.9516 55.4114 39.9613 58.7113 37.4612 58.7387C34.9641 58.7693 32.9006 55.5121 32.8548 51.4674C32.809 47.4257 34.7993 44.1227 37.2994 44.0953C39.7995 44.0678 41.86 47.3249 41.9058 51.3666Z" fill="#FFCCAA"/>
<path d="M70.1404 53.1829C78.123 43.561 78.5351 29.2869 68.9132 21.3043C61.3183 15.0036 49.3642 12.531 43.2925 19.3384C41.409 21.4538 38.7563 22.5558 37.0346 24.2684C30.0074 31.2528 31.4971 42.746 36.8911 51.0552V41.1342C36.8911 37.0528 42.3126 35.2884 47.7188 35.2884H57.8322C64.1023 35.2884 70.5128 39.4247 70.3174 46.6655L70.1404 53.1829Z" fill="black"/>
</svg>
