<svg width="24" height="24" viewBox="0 0 24 24" fill="none" xmlns="http://www.w3.org/2000/svg">
<g id="barber" clip-path="url(#clip0_1_273)">
<path id="Vector" d="M19.9375 21.8812V23.2375H1.43286V21.8859C1.43286 18.5712 4.12018 15.8796 7.43911 15.8796H13.936C17.2505 15.8796 19.9375 18.5667 19.9375 21.8812Z" stroke="#6D6D6D"/>
<path id="Vector_2" d="M13.125 12.4734V18.675L10.6875 20.1468L8.25 18.6796V12.4734H13.125Z" fill="white"/>
<path id="Vector_3" d="M16.4062 8.77505C16.4062 9.30005 15.9797 9.72661 15.4547 9.72661L15.3703 10.3922C15.2203 11.5688 14.6438 12.6 13.8047 13.336C12.9703 14.0719 11.8781 14.5125 10.6875 14.5125C8.31563 14.5125 6.30937 12.75 6.00937 10.3969L5.925 9.7313C5.39531 9.7313 4.96875 9.30005 4.96875 8.77974C4.96875 8.25005 5.39531 7.82349 5.925 7.82349V3.9563H15.4594V7.82349C15.9844 7.8188 16.4062 8.24536 16.4062 8.77505Z" fill="white"/>
<path id="Vector_4" d="M12.9 8.59688C12.8203 8.40469 12.5485 8.40469 12.4688 8.59688C12.4172 8.72344 12.2719 8.77969 12.15 8.72813C12.0235 8.67657 11.9672 8.53126 12.0188 8.40938C12.2672 7.80938 13.111 7.81876 13.3594 8.40938C13.411 8.53594 13.35 8.67657 13.2282 8.72813C13.0969 8.77969 12.9516 8.72344 12.9 8.59688ZM8.15627 8.72813C8.02971 8.67657 7.97346 8.53126 8.02502 8.40938C8.27346 7.81407 9.11721 7.81876 9.36565 8.40938C9.41721 8.53594 9.36096 8.67657 9.2344 8.73282C9.10784 8.78438 8.96721 8.72813 8.91096 8.60157C8.83127 8.40938 8.5594 8.40938 8.47971 8.60157C8.42346 8.72344 8.27815 8.77969 8.15627 8.72813Z" fill="#6D6D6D"/>
<path id="Vector_5" d="M10.9313 20.0016V23.7328H10.4391V20.0016H10.575C10.6453 20.0953 10.6828 20.1469 10.6875 20.1469C10.7203 20.0953 10.7578 20.0485 10.786 20.0016H10.9313Z" fill="#6D6D6D"/>
<path id="Vector_6" d="M10.6875 20.1515C9.93748 19.6828 12.4547 21.2296 7.3406 18.1312L5.56873 19.1203L6.61873 16.1437L8.21716 14.5125C8.1656 14.939 8.17029 15.375 8.24998 15.839C8.4656 17.1421 10.4953 19.9593 10.6875 20.1515Z" fill="#6D6D6D"/>
<path id="Vector_7" d="M15.8063 19.1203L14.0344 18.1312C14.0156 18.1312 10.7109 20.1375 10.6875 20.1515C12.2578 17.7937 13.1906 16.9781 13.1906 15.0703C13.1906 14.8875 13.1484 14.6953 13.125 14.5125L14.7562 16.1437L15.8063 19.1203Z" fill="#6D6D6D"/>
<path id="Vector_8" d="M15.4593 9.72656L15.2156 12.1969C15.0375 13.6031 14.1187 14.7937 12.825 15.3047C11.475 15.7922 9.88589 15.7875 8.54526 15.3047C7.25151 14.7937 6.33745 13.6031 6.15464 12.1969L5.91089 9.72656C5.91089 9.72656 6.81089 11.4609 7.7812 11.4609C8.77964 11.4609 9.47339 10.4672 10.6828 10.4672C11.8921 10.4672 12.5859 11.4609 13.5843 11.4609C14.5546 11.4609 15.4593 9.72656 15.4593 9.72656Z" fill="#6D6D6D"/>
<g id="Vector_9">
<path fill-rule="evenodd" clip-rule="evenodd" d="M20.4282 21.4219C20.4282 20.5688 20.9157 19.8704 21.5344 19.8094C21.0235 18.6376 20.2969 17.8922 19.35 17.4375C18.9516 17.2454 18.6328 16.9219 18.4453 16.5235L16.7532 12.9329C16.6828 12.7782 16.4766 12.736 16.3594 12.8625C16.0735 13.1719 15.9797 13.636 16.1485 14.0485L17.461 17.2266C17.6391 17.7235 18.0141 18.1313 18.5016 18.3329C19.7391 18.8438 20.4375 19.7204 20.4235 21.4219H20.4282Z" fill="#6D6D6D"/>
<path d="M10.6875 13.1579C10.1063 13.1579 9.7219 13.5422 9.52972 13.1579C9.22034 12.5344 9.91409 11.8079 10.6875 11.8079C11.461 11.8079 12.1594 12.5344 11.8453 13.1579C11.6532 13.5422 11.2688 13.1579 10.6875 13.1579Z" fill="white"/>
</g>
<path id="Vector_10" d="M21.989 14.0531L20.6765 17.2312C20.4937 17.7281 20.1234 18.1359 19.6359 18.3375C18.4078 18.8437 17.714 19.7109 17.714 21.3891C17.7 20.55 17.2172 19.8703 16.6078 19.8094C17.1187 18.6375 17.8453 17.8969 18.7922 17.4375C19.1859 17.2453 19.5047 16.9266 19.6922 16.5234L21.3844 12.9328C21.4547 12.7781 21.6656 12.7406 21.7781 12.8625C22.0687 13.1766 22.1625 13.6406 21.989 14.0531Z" fill="#6D6D6D"/>
<path id="Vector_11" d="M23.0672 21.4266C23.0672 20.3953 22.4203 19.561 21.6234 19.561C20.8266 19.561 20.1797 20.4 20.1797 21.4266C20.1797 22.4531 20.8266 23.2922 21.6234 23.2922C21.9187 23.2922 22.1953 23.175 22.425 22.9781C22.4625 23.3391 22.3641 23.686 22.3641 23.6906C22.3266 23.8219 22.4016 23.9578 22.5328 23.9953C22.6641 24.0328 22.8 23.9578 22.8375 23.8266C22.8469 23.7938 23.0438 23.086 22.8094 22.4906C22.9734 22.1813 23.0672 21.8203 23.0672 21.4266ZM21.6234 22.8C21.0984 22.8 20.6719 22.1813 20.6719 21.4266C20.6719 20.6672 21.0984 20.0485 21.6234 20.0485C22.1484 20.0485 22.575 20.6672 22.575 21.4266C22.575 21.7641 22.4906 22.0735 22.35 22.3125C22.35 22.3125 22.35 22.3172 22.3453 22.3172C22.1719 22.6125 21.9141 22.8 21.6234 22.8ZM16.5141 19.5563C15.7172 19.5563 15.0703 20.3953 15.0703 21.4219C15.0703 21.8156 15.1641 22.1813 15.3281 22.4813C15.0984 23.0766 15.2906 23.7844 15.3 23.8172C15.3375 23.9485 15.4734 24.0235 15.6047 23.986C15.7359 23.9485 15.8109 23.8125 15.7734 23.6813C15.7406 23.5594 15.6891 23.2641 15.7172 22.9735C15.9469 23.1703 16.2187 23.2875 16.5141 23.2875C17.3109 23.2875 17.9578 22.4531 17.9578 21.4219C17.9578 20.3953 17.3109 19.5563 16.5141 19.5563ZM16.5141 22.8C16.2281 22.8 15.9703 22.6125 15.7922 22.3219C15.7875 22.3172 15.7875 22.3125 15.7875 22.3125C15.6469 22.0735 15.5625 21.7641 15.5625 21.4266C15.5625 20.6672 15.9891 20.0485 16.5141 20.0485C17.0391 20.0485 17.4656 20.6672 17.4656 21.4266C17.4703 22.1813 17.0391 22.8 16.5141 22.8Z" fill="#6D6D6D"/>
<path id="Vector_12" d="M10.6828 5.77033C11.6109 5.85001 12.539 5.59689 13.3031 5.06251C13.4531 4.9547 13.6547 4.94533 13.814 5.03908C14.5031 5.39064 14.9484 6.09376 14.9672 6.8672V7.34533C14.9672 7.60783 15.1781 7.82345 15.4453 7.82345C15.7078 7.82345 15.9234 7.61251 15.9234 7.34533V5.4797C15.9469 4.11095 15.2812 2.82658 14.1515 2.05783C12.5719 1.02189 11.1 1.58439 10.8844 1.59376C10.7859 1.61251 10.7015 1.53283 10.7156 1.43439L10.8187 0.717201C10.875 0.346888 10.5 0.0609506 10.1625 0.210951C9.72654 0.501576 9.34216 0.871888 9.03748 1.29845C8.9531 1.40158 8.78435 1.34064 8.78435 1.20939V0.478138C8.78435 0.215638 8.57341 1.3121e-05 8.31091 1.3121e-05C7.27029 -0.00467438 5.45154 1.24689 5.45154 3.29533V7.34533C5.45154 7.60783 5.66248 7.82345 5.92966 7.82345C6.19216 7.82345 6.40779 7.61251 6.40779 7.34533V6.8672C6.43123 6.09376 6.87185 5.39064 7.56091 5.03908C7.72029 4.94533 7.91716 4.9547 8.07185 5.06251C8.82654 5.59689 9.75466 5.84533 10.6828 5.77033Z" fill="#6D6D6D"/>
</g>
<defs>
<clipPath id="clip0_1_273">
<rect width="24" height="24" fill="white"/>
</clipPath>
</defs>
</svg>
