<svg width="24" height="24" viewBox="0 0 24 24" fill="none" xmlns="http://www.w3.org/2000/svg">
<g clip-path="url(#clip0_1_1188)">
<path d="M12 4.125C10.4054 4.125 8.84659 4.59786 7.52072 5.48378C6.19485 6.3697 5.16146 7.62889 4.55122 9.10211C3.94099 10.5753 3.78133 12.1964 4.09242 13.7604C4.40352 15.3244 5.17139 16.761 6.29896 17.8885C7.42652 19.0161 8.86312 19.784 10.4271 20.0951C11.9911 20.4062 13.6122 20.2465 15.0854 19.6363C16.5586 19.026 17.8178 17.9927 18.7037 16.6668C19.5896 15.3409 20.0625 13.7821 20.0625 12.1875C20.0625 10.0492 19.2131 7.99846 17.7011 6.48645C16.189 4.97444 14.1383 4.125 12 4.125ZM17.8988 16.5C17.3641 16.1866 16.7986 15.9289 16.2113 15.7313C16.4916 14.6974 16.6452 13.6334 16.6688 12.5625H19.2938C19.2242 13.9833 18.7392 15.3524 17.8988 16.5ZM4.69688 12.5625H7.33125C7.354 13.6339 7.507 14.6986 7.78688 15.7331C7.1995 15.9308 6.63403 16.1884 6.09938 16.5019C5.25594 15.3546 4.76824 13.9847 4.69688 12.5625ZM6.10125 7.875C6.6359 8.18844 7.20138 8.44605 7.78875 8.64375C7.5084 9.67756 7.35477 10.7416 7.33125 11.8125H4.70625C4.77579 10.3917 5.26084 9.02265 6.10125 7.875ZM12.375 9.30375C13.423 9.27929 14.4645 9.13203 15.4781 8.865C15.7448 9.82583 15.8928 10.8157 15.9188 11.8125H12.375V9.30375ZM12.375 8.55375V4.91063C13.5563 5.13188 14.6044 6.375 15.2494 8.15063C14.31 8.39544 13.3455 8.53072 12.375 8.55375ZM11.625 4.91063V8.55375C10.6545 8.53072 9.68999 8.39544 8.75063 8.15063C9.39563 6.375 10.4438 5.13188 11.625 4.91063ZM11.625 9.30375V11.8125H8.08125C8.10724 10.8157 8.25522 9.82583 8.52188 8.865C9.53555 9.13203 10.577 9.27929 11.625 9.30375ZM8.08125 12.5625H11.625V15.0712C10.577 15.0957 9.53555 15.243 8.52188 15.51C8.25522 14.5492 8.10724 13.5593 8.08125 12.5625ZM11.625 15.8212V19.4644C10.4438 19.2431 9.39563 18 8.75063 16.2244C9.68999 15.9796 10.6545 15.8443 11.625 15.8212ZM12.375 19.4644V15.8212C13.3455 15.8443 14.31 15.9796 15.2494 16.2244C14.6044 18 13.5563 19.2431 12.375 19.4644ZM12.375 15.0712V12.5625H15.9188C15.8928 13.5593 15.7448 14.5492 15.4781 15.51C14.4645 15.243 13.423 15.0957 12.375 15.0712ZM16.6688 11.8125C16.646 10.7411 16.493 9.67637 16.2131 8.64188C16.8005 8.44418 17.366 8.18657 17.9006 7.87313C18.7474 9.01937 19.2384 10.3893 19.3125 11.8125H16.6688ZM17.4188 7.28437C16.9627 7.54362 16.483 7.75897 15.9863 7.9275C15.6659 6.95655 15.1475 6.06268 14.4638 5.3025C15.5974 5.7099 16.613 6.39063 17.4206 7.28437H17.4188ZM9.53438 5.30438C8.85065 6.06456 8.33221 6.95842 8.01188 7.92938C7.51509 7.76084 7.03544 7.5455 6.57938 7.28625C7.38649 6.39276 8.40144 5.71205 9.53438 5.30438ZM6.57938 17.0906C7.03544 16.8314 7.51509 16.616 8.01188 16.4475C8.33221 17.4185 8.85065 18.3123 9.53438 19.0725C8.40144 18.6648 7.38649 17.9841 6.57938 17.0906ZM14.4656 19.0706C15.1494 18.3104 15.6678 17.4166 15.9881 16.4456C16.4849 16.6142 16.9646 16.8295 17.4206 17.0887C16.6135 17.9822 15.5986 18.663 14.4656 19.0706Z" fill="#002E5B"/>
<path d="M17.8988 16.5C17.3641 16.1866 16.7986 15.9289 16.2113 15.7313C16.4916 14.6974 16.6452 13.6334 16.6688 12.5625H19.2938C19.2242 13.9833 18.7392 15.3524 17.8988 16.5Z" fill="#F36F21"/>
<path d="M16.6688 11.8125C16.646 10.7411 16.493 9.67637 16.2131 8.64188C16.8005 8.44418 17.366 8.18657 17.9006 7.87313C18.7474 9.01937 19.2384 10.3893 19.3125 11.8125H16.6688Z" fill="#F36F21"/>
<path d="M17.4188 7.28437C16.9627 7.54362 16.483 7.75897 15.9863 7.9275C15.6659 6.95655 15.1475 6.06268 14.4638 5.3025C15.5974 5.7099 16.613 6.39063 17.4206 7.28437H17.4188Z" fill="#F36F21"/>
<path d="M6.57938 17.0906C7.03544 16.8314 7.51509 16.616 8.01188 16.4475C8.33221 17.4185 8.85065 18.3123 9.53438 19.0725C8.40144 18.6648 7.38649 17.9841 6.57938 17.0906Z" fill="#F36F21"/>
<path d="M4.69688 12.5625H7.33125C7.354 13.6339 7.507 14.6986 7.78688 15.7331C7.1995 15.9308 6.63403 16.1884 6.09938 16.5019C5.25594 15.3546 4.76824 13.9847 4.69688 12.5625Z" fill="#F36F21"/>
<path d="M6.10125 7.875C6.6359 8.18844 7.20138 8.44605 7.78875 8.64375C7.5084 9.67756 7.35477 10.7416 7.33125 11.8125H4.70625C4.77579 10.3917 5.26084 9.02265 6.10125 7.875Z" fill="#F36F21"/>
<path d="M12.0005 1.47883e-07C9.90464 0.000354802 7.84544 0.549614 6.02785 1.59311C4.21025 2.6366 2.69765 4.13793 1.64059 5.94768C0.583531 7.75742 0.018887 9.81245 0.002858 11.9082C-0.013171 14.004 0.519974 16.0674 1.54923 17.8931L0.0136014 23.5181C-0.00309737 23.5743 -0.0064056 23.6336 0.00394198 23.6912C0.0142896 23.7489 0.0380051 23.8033 0.073187 23.8502C0.108369 23.897 0.154038 23.935 0.206534 23.961C0.259029 23.987 0.31689 24.0004 0.375476 24C0.407817 24.0003 0.440025 23.9958 0.471101 23.9869L6.16923 22.4869C7.77078 23.3777 9.55509 23.8899 11.3853 23.9841C13.2155 24.0784 15.043 23.7522 16.7276 23.0305C18.4121 22.3089 19.9091 21.211 21.1035 19.8211C22.2979 18.4312 23.1581 16.7861 23.6182 15.0122C24.0782 13.2382 24.1258 11.3825 23.7573 9.58726C23.3888 7.79205 22.6141 6.10509 21.4925 4.65576C20.3709 3.20644 18.9322 2.03326 17.2868 1.22622C15.6415 0.419177 13.8331 -0.000287541 12.0005 1.47883e-07ZM12.0005 23.25C10.0372 23.2466 8.1089 22.7295 6.40735 21.75C6.3502 21.7176 6.28554 21.7008 6.21985 21.7013C6.18765 21.7013 6.15556 21.7051 6.12423 21.7125L0.907976 23.0963L2.31235 17.94C2.32541 17.8921 2.32882 17.842 2.32238 17.7928C2.31594 17.7436 2.29979 17.6961 2.27485 17.6531C1.02969 15.5108 0.52668 13.0172 0.843928 10.5597C1.16118 8.10213 2.28093 5.81808 4.02933 4.06215C5.77773 2.30622 8.05695 1.17667 10.5131 0.848872C12.9693 0.521072 15.4649 1.01336 17.6126 2.24932C19.7603 3.48527 21.4399 5.39572 22.3905 7.68405C23.3412 9.97239 23.5097 12.5106 22.8699 14.9045C22.2302 17.2984 20.818 19.4142 18.8525 20.9232C16.8871 22.4323 14.4784 23.2502 12.0005 23.25Z" fill="#002E5B"/>
</g>
<defs>
<clipPath id="clip0_1_1188">
<rect width="24" height="24" fill="white"/>
</clipPath>
</defs>
</svg>
