<svg width="12" height="13" viewBox="0 0 12 13" fill="none" xmlns="http://www.w3.org/2000/svg">
<g id="location">
<path id="Vector" d="M6 1.5C4.93913 1.5 3.92172 1.92143 3.17157 2.67157C2.42143 3.42172 2 4.43913 2 5.5C2 8.2 5.525 11.25 5.675 11.38C5.76557 11.4575 5.88082 11.5 6 11.5C6.11918 11.5 6.23443 11.4575 6.325 11.38C6.5 11.25 10 8.2 10 5.5C10 4.43913 9.57857 3.42172 8.82843 2.67157C8.07828 1.92143 7.06087 1.5 6 1.5ZM6 10.325C4.935 9.325 3 7.17 3 5.5C3 4.70435 3.31607 3.94129 3.87868 3.37868C4.44129 2.81607 5.20435 2.5 6 2.5C6.79565 2.5 7.55871 2.81607 8.12132 3.37868C8.68393 3.94129 9 4.70435 9 5.5C9 7.17 7.065 9.33 6 10.325ZM6 3.5C5.60444 3.5 5.21776 3.6173 4.88886 3.83706C4.55996 4.05682 4.30362 4.36918 4.15224 4.73463C4.00087 5.10009 3.96126 5.50222 4.03843 5.89018C4.1156 6.27814 4.30608 6.63451 4.58579 6.91421C4.86549 7.19392 5.22186 7.3844 5.60982 7.46157C5.99778 7.53874 6.39991 7.49913 6.76537 7.34776C7.13082 7.19638 7.44318 6.94004 7.66294 6.61114C7.8827 6.28224 8 5.89556 8 5.5C8 4.96957 7.78929 4.46086 7.41421 4.08579C7.03914 3.71071 6.53043 3.5 6 3.5ZM6 6.5C5.80222 6.5 5.60888 6.44135 5.44443 6.33147C5.27998 6.22159 5.15181 6.06541 5.07612 5.88268C5.00043 5.69996 4.98063 5.49889 5.01921 5.30491C5.0578 5.11093 5.15304 4.93275 5.29289 4.79289C5.43275 4.65304 5.61093 4.5578 5.80491 4.51921C5.99889 4.48063 6.19996 4.50043 6.38268 4.57612C6.56541 4.65181 6.72159 4.77998 6.83147 4.94443C6.94135 5.10888 7 5.30222 7 5.5C7 5.76522 6.89464 6.01957 6.70711 6.20711C6.51957 6.39464 6.26522 6.5 6 6.5Z" fill="#002E5B"/>
</g>
</svg>
