<svg width="24" height="24" viewBox="0 0 24 24" fill="none" xmlns="http://www.w3.org/2000/svg">
<g id="switch">
<path id="Vector" d="M12 23.2501C17.709 23.2501 22.3545 18.6053 22.3545 12.8956C22.3545 8.53809 19.6065 4.62309 15.5153 3.15459C15.328 3.08746 15.1217 3.09747 14.9418 3.18243C14.7619 3.26738 14.6231 3.42032 14.556 3.60759C14.4889 3.79487 14.4989 4.00114 14.5838 4.18104C14.6688 4.36093 14.8217 4.49971 15.009 4.56684C18.5055 5.82159 20.8545 9.16885 20.8545 12.8956C20.8545 17.7781 16.8825 21.7501 12 21.7501C7.11751 21.7501 3.14551 17.7781 3.14551 12.8956C3.14551 9.1681 5.49451 5.82159 8.99101 4.56684C9.17828 4.49971 9.33122 4.36093 9.41617 4.18104C9.50113 4.00114 9.51114 3.79487 9.44401 3.60759C9.37687 3.42032 9.2381 3.26738 9.0582 3.18243C8.87831 3.09747 8.67203 3.08746 8.48476 3.15459C4.39351 4.62309 1.64551 8.53734 1.64551 12.8956C1.64551 18.6053 6.29101 23.2501 12 23.2501Z" fill="#DB2524"/>
<path id="Vector_2" d="M11.25 1.5V8.0175C11.25 8.21641 11.329 8.40718 11.4697 8.54783C11.6103 8.68848 11.8011 8.7675 12 8.7675C12.1989 8.7675 12.3897 8.68848 12.5303 8.54783C12.671 8.40718 12.75 8.21641 12.75 8.0175V1.5C12.75 1.30109 12.671 1.11032 12.5303 0.96967C12.3897 0.829018 12.1989 0.75 12 0.75C11.8011 0.75 11.6103 0.829018 11.4697 0.96967C11.329 1.11032 11.25 1.30109 11.25 1.5Z" fill="#DB2524"/>
</g>
</svg>
