<svg width="26" height="18" viewBox="0 0 26 18" fill="none" xmlns="http://www.w3.org/2000/svg">
<g clip-path="url(#clip0_1_16)">
<mask id="mask0_1_16" style="mask-type:luminance" maskUnits="userSpaceOnUse" x="0" y="0" width="26" height="18">
<path d="M0 0H25.0973V18H0V0Z" fill="white"/>
</mask>
<g mask="url(#mask0_1_16)">
<path fill-rule="evenodd" clip-rule="evenodd" d="M-1.5686 0H26.6657V18H-1.5686V0Z" fill="#199D00"/>
<path fill-rule="evenodd" clip-rule="evenodd" d="M5.54664 5.10224C5.51403 5.52274 5.47495 6.26278 5.84858 6.33868C6.30051 6.38024 6.05129 5.60722 6.21489 5.46705C6.24581 5.39779 6.30283 5.39744 6.30753 5.48481V6.14047C6.30342 6.35373 6.44999 6.41652 6.56385 6.46057C6.68237 6.45181 6.76149 6.45561 6.80792 6.56586L6.86351 7.70004C6.86351 7.70004 7.13835 7.77527 7.15144 7.06209C7.16456 6.64338 7.06394 6.29287 7.12295 6.21138C7.12501 6.13133 7.23191 6.12655 7.30603 6.16557C7.42419 6.24524 7.47679 6.34364 7.66039 6.3043C7.93972 6.23068 8.10765 6.10074 8.11177 5.89564C8.09545 5.7007 8.07258 5.50576 7.98428 5.31082C7.99659 5.27534 7.93034 5.18352 7.94262 5.14804C7.99284 5.22324 8.06924 5.21698 8.08659 5.14804C8.03905 4.99824 7.96527 4.8547 7.84568 4.79254C7.74686 4.70929 7.60219 4.72631 7.54922 4.89998C7.5247 5.10009 7.62466 5.33785 7.77704 5.53167C7.80939 5.6074 7.85487 5.73322 7.83487 5.84653C7.75381 5.89079 7.67271 5.87233 7.60477 5.80374C7.60477 5.80374 7.38242 5.64427 7.38242 5.60884C7.44143 5.24757 7.39551 5.20661 7.36283 5.10635C7.33996 4.96794 7.27129 4.92357 7.21566 4.82904C7.16004 4.77264 7.08479 4.77264 7.04883 4.82904C6.95053 4.99198 6.99637 5.34172 7.06736 5.49841C7.11868 5.64248 7.19706 5.7329 7.16 5.7329C7.12953 5.81432 7.06648 5.79552 7.0206 5.70154C6.95508 5.50731 6.94196 5.21748 6.94196 5.08701C6.92233 4.92519 6.90071 4.58006 6.78936 4.49238C6.72142 4.40393 6.62072 4.44706 6.58554 4.52782C6.57822 4.68841 6.57745 4.84897 6.59638 4.99698C6.67274 5.25654 6.69675 5.48481 6.73381 5.75062C6.7441 6.10668 6.51852 5.9051 6.52881 5.72858C6.58083 5.49929 6.56734 5.13838 6.52109 5.0469C6.48448 4.95542 6.44121 4.93285 6.35209 4.9479C6.28132 4.94379 6.09923 5.13391 6.0481 5.4493C6.0481 5.4493 6.00449 5.61165 5.98593 5.75579C5.96093 5.91867 5.8488 6.03363 5.77013 5.73287C5.70219 5.5143 5.66043 4.97616 5.54661 5.1022L5.54664 5.10224Z" fill="white"/>
<path fill-rule="evenodd" clip-rule="evenodd" d="M6.77457 6.82775C6.37577 7.01419 5.99008 7.1881 5.59778 7.36828C5.61212 7.11319 6.15728 6.65271 6.52903 6.64624C6.77101 6.65271 6.7102 6.73585 6.77457 6.82775Z" fill="white"/>
<path fill-rule="evenodd" clip-rule="evenodd" d="M6.56905 7.18033C5.94885 8.70917 8.02139 8.92218 8.253 7.24295C8.2748 7.17404 8.36219 7.10513 8.37748 7.21788C8.32943 8.73832 6.77438 8.8428 6.51012 8.36447C6.44465 8.25172 6.42494 8.00109 6.4184 7.85069C6.37906 7.55207 6.21532 7.66693 6.1891 7.96347C6.16285 8.12846 6.16944 8.17448 6.16944 8.33318C6.25241 9.53408 8.25524 9.01823 8.58064 8.02616C8.75317 7.47684 8.55222 7.0717 8.64611 7.07377C8.84489 7.27845 9.1222 7.10091 9.18337 7.0299C9.20962 6.99439 9.27517 6.97147 9.32101 7.01738C9.47604 7.12398 9.74912 7.07374 9.80589 6.88579C9.83868 6.702 9.86489 6.51194 9.87143 6.31567C9.74471 6.35328 9.65085 6.37828 9.64211 6.42845L9.61589 6.59132C9.60501 6.64357 9.49571 6.64561 9.49141 6.57877C9.44336 6.36991 9.24462 6.34277 9.12448 6.66652C9.04363 6.72917 8.89735 6.74172 8.88202 6.64775C8.90165 6.43052 8.80993 6.40127 8.62652 6.50361C8.56751 6.07337 8.50858 5.66197 8.44957 5.23169C8.52604 5.22958 8.59597 5.28386 8.66589 5.20033C8.58935 4.97273 8.42777 4.50695 8.33818 4.47351C8.29451 4.42341 8.2573 4.45474 8.20061 4.46725C8.10451 4.4965 8.01496 4.57589 8.0433 4.73043C8.1569 5.39039 8.23116 5.89375 8.34476 6.55374C8.36219 6.63102 8.29451 6.73329 8.20716 6.72284C8.05863 6.6268 8.02161 6.43259 7.7682 6.44089C7.58472 6.443 7.37498 6.63306 7.34884 6.81692C7.31825 6.96303 7.3073 7.12173 7.34877 7.2492C7.4777 7.39746 7.63277 7.3829 7.76816 7.34947C7.87956 7.30563 7.97125 7.19911 8.01058 7.22414C8.03683 7.2555 8.01709 7.60629 7.48637 7.87576C7.16536 8.01357 6.90978 8.04497 6.77224 7.7943C6.68706 7.63765 6.77879 7.04241 6.56905 7.1803V7.18033Z" fill="white"/>
<path fill-rule="evenodd" clip-rule="evenodd" d="M9.19974 5.62601C9.32422 5.58214 9.91402 4.93681 9.91402 4.93681C9.88339 4.91174 9.85608 4.89293 9.82549 4.86787C9.7927 4.84073 9.79601 4.81359 9.82549 4.78641C9.97181 4.70499 9.92486 4.52639 9.84843 4.44497C9.72175 4.39062 9.61146 4.40841 9.53061 4.44807C9.42797 4.54207 9.404 4.6924 9.48484 4.78641C9.56352 4.82192 9.64208 4.89817 9.58962 4.93994C9.34834 5.18638 8.68763 5.61142 8.7641 5.62601C8.78042 5.64689 9.18669 5.64584 9.19974 5.62601ZM5.63833 7.91011C5.41716 8.24705 5.39789 8.75045 5.51995 8.90053C5.5848 8.97145 5.69134 9.00249 5.77016 8.9803C5.90912 8.92265 5.96993 8.65342 5.93695 8.55491C5.89056 8.48552 5.85405 8.47451 5.80773 8.53357C5.70994 8.72342 5.66935 8.59316 5.66079 8.48706C5.64579 8.28586 5.6656 8.10055 5.68843 7.95381C5.71277 7.80341 5.68807 7.8494 5.63833 7.91011ZM15.0896 7.37046C14.8758 6.93027 14.5797 6.49528 14.4855 6.32819C14.3913 6.16102 13.6802 5.17411 13.5755 5.06312C13.3445 4.80061 13.9507 5.17246 13.4989 4.65123C13.3266 4.50991 13.3166 4.50129 13.1736 4.38598C13.1015 4.33704 12.9254 4.24764 12.8942 4.39582C12.8785 4.5265 12.887 4.59734 12.9099 4.70615C12.9275 4.77868 13.038 4.90014 13.0924 4.97052C13.8138 5.89794 14.4536 6.83451 15.0705 8.01207C15.1679 7.96777 15.1466 7.44412 15.0896 7.37046H15.0896Z" fill="white"/>
<path fill-rule="evenodd" clip-rule="evenodd" d="M14.1511 8.84317C14.109 8.88832 14.2549 9.08139 14.4444 9.08118C14.7615 9.04603 15.0406 8.87573 15.299 8.42745C15.3681 8.3229 15.4896 8.0993 15.4931 7.92588C15.5173 6.90898 15.4399 6.11769 15.2806 5.38268C15.2703 5.3111 15.2765 5.22693 15.2892 5.20549C15.3098 5.18204 15.3794 5.20559 15.4163 5.14769C15.4705 5.09478 15.2724 4.65656 15.1595 4.48777C15.1194 4.4124 15.1055 4.36205 15.0391 4.49663C14.9692 4.60597 14.9224 4.7968 14.9278 4.97511C15.0791 5.97646 15.1256 6.85242 15.2244 7.85377C15.2325 7.95059 15.2175 8.09132 15.1502 8.14743C14.9013 8.39606 14.5419 8.70209 14.1511 8.84317ZM18.4336 8.8379C18.2061 8.96366 18.2059 9.10832 18.3898 9.11356C18.7068 9.07837 19.0814 9.0532 19.3398 8.68012C19.4089 8.57557 19.4911 8.29287 19.4946 8.11945C19.5188 7.10255 19.4807 6.34353 19.3214 5.60859C19.3112 5.53698 19.2781 5.3722 19.2907 5.35072C19.3113 5.30037 19.4146 5.3562 19.4516 5.29826C19.5057 5.24539 19.184 4.85013 19.0711 4.68134C19.031 4.606 19.017 4.55566 18.9507 4.6902C18.8808 4.79957 18.8565 4.99578 18.8844 5.16871C19.0525 6.25603 19.1777 7.07288 19.2035 8.03659C19.189 8.12806 19.1854 8.17739 19.1405 8.29263C19.0413 8.41427 18.9314 8.56632 18.8283 8.63983C18.7252 8.71331 18.5053 8.78348 18.4336 8.83794V8.8379Z" fill="white"/>
<path fill-rule="evenodd" clip-rule="evenodd" d="M18.6042 7.86304C18.6016 7.60875 18.608 7.38917 18.5992 7.19953C18.5905 7.00986 18.5554 6.85542 18.4868 6.72081C18.4218 6.57646 18.4621 6.46048 18.4316 6.3067C18.4012 6.153 18.4087 5.9228 18.3626 5.74041C18.35 5.66918 18.3113 5.44105 18.3233 5.41918C18.342 5.36828 18.4135 5.42077 18.4485 5.36177C18.5008 5.30721 18.267 4.72868 18.1484 4.56348C18.1057 4.48941 18.0283 4.51479 17.9328 4.6352C17.8442 4.71448 17.8771 4.89522 17.9109 5.06713C18.1384 6.20236 18.308 7.22987 18.271 8.31054C18.2597 8.40244 18.6066 8.0365 18.6042 7.86304ZM16.9234 6.45503C16.7803 6.45253 16.4806 6.18876 16.3931 6.03421C16.3601 5.94558 16.3813 5.8591 16.4104 5.80843C16.4634 5.77549 16.5449 5.73847 16.6059 5.77398C16.6059 5.77398 16.6691 5.8585 16.6568 5.86926C16.7349 5.90504 16.7681 5.88444 16.776 5.85407C16.7814 5.80084 16.7529 5.76913 16.7526 5.71052C16.7857 5.55162 16.9757 5.5269 17.0472 5.62826C17.0996 5.69003 17.1188 5.82134 17.1267 5.90997C17.1259 5.95525 17.0492 5.90213 17.0057 5.91302C16.9621 5.92392 16.9516 5.97202 16.9482 6.01551C16.9403 6.13075 16.926 6.31567 16.9234 6.45499V6.45503ZM14.2827 8.14499C14.3221 7.79947 14.2681 7.18413 14.2645 6.98026C14.25 6.49862 14.1678 5.56832 14.1286 5.41289C14.0845 5.11993 14.2546 5.44502 14.231 5.27473C14.1759 4.98219 14.0062 4.78388 13.8067 4.51592C13.7424 4.42873 13.7446 4.41097 13.6453 4.53729C13.5354 4.77565 13.6302 4.93965 13.6586 5.12531C13.8025 5.73021 13.8864 6.28677 13.9255 6.83697C13.9646 7.38716 13.9766 7.98208 13.9409 8.56156C14.0487 8.5656 14.222 8.39481 14.2827 8.14499Z" fill="white"/>
<path fill-rule="evenodd" clip-rule="evenodd" d="M19.0913 7.59165C18.839 7.18683 18.4583 6.74836 18.3566 6.58534C18.2549 6.42228 17.3946 5.36085 17.285 5.25432C16.9703 4.93816 17.4293 5.20286 17.2247 4.95866C17.0517 4.77697 17.0012 4.71995 16.8531 4.61068C16.7789 4.5648 16.7339 4.47716 16.7094 4.6265C16.6997 4.75771 16.6896 4.90951 16.6988 5.02008C16.6983 5.08157 16.7653 5.19705 16.8227 5.26512C17.5857 6.1616 18.418 7.07696 19.088 8.22773C19.1833 8.17939 19.1516 7.66288 19.0913 7.59165Z" fill="white"/>
<path fill-rule="evenodd" clip-rule="evenodd" d="M7.64396 6.84461C7.6258 6.87505 7.58536 6.9145 7.59892 6.95531C7.62723 6.99202 7.64988 6.99947 7.69708 7.00147C7.73804 7.00147 7.79524 7.01072 7.80756 6.98762C7.82961 6.96442 7.84634 6.91699 7.828 6.87227C7.78535 6.77032 7.66624 6.80829 7.64396 6.84461Z" fill="#1BA400"/>
<path fill-rule="evenodd" clip-rule="evenodd" d="M16.1577 12.7455C16.4951 12.7574 16.7159 12.7603 17.016 12.7944C17.016 12.7944 17.2748 12.77 17.3672 12.7566C17.7579 12.721 17.7751 13.2901 17.7751 13.2901C17.7709 13.6239 17.6361 13.6414 17.4641 13.6767C17.3658 13.6886 17.3142 13.6204 17.2625 13.5477C17.1977 13.5737 17.1096 13.5774 17.0028 13.5632C16.8622 13.5548 16.7216 13.5554 16.581 13.547C16.4317 13.5344 16.3522 13.5618 16.2028 13.5492C16.172 13.5955 16.132 13.6595 16.0407 13.6389C15.9646 13.6308 15.8746 13.4268 15.9011 13.2716C15.956 13.1604 15.9409 13.1962 15.9352 13.1473C14.5557 13.1137 13.1629 13.0549 11.8096 13.0717C10.7508 13.0759 9.70513 13.1179 8.65947 13.16C8.10151 13.1515 7.67535 13.0675 7.38098 12.6557C7.40734 12.6557 8.80446 12.7314 9.21309 12.7062C9.96876 12.6977 10.6585 12.6389 11.4274 12.6179C12.9431 12.6431 14.4458 12.6432 15.9614 12.744C15.8164 12.6491 15.8112 12.425 16.0344 12.3703C16.0534 12.3578 16.0631 12.4817 16.0965 12.4794C16.2751 12.4666 16.1968 12.6978 16.1575 12.7455L16.1577 12.7455ZM10.0722 4.75593C9.84251 5.38378 10.2038 6.07056 10.4543 6.00369C10.6351 6.07523 10.7501 5.74645 10.8241 5.38624C10.8748 5.28513 10.913 5.27437 10.939 5.32634C10.9323 5.80534 10.975 5.91144 11.1038 6.05685C11.391 6.2688 11.6287 6.08392 11.6473 6.06606L11.871 5.85217C11.9207 5.80207 11.987 5.79915 12.0574 5.84327C12.1257 5.90269 12.1161 6.00527 12.2624 6.07643C12.3855 6.12354 12.6488 6.08733 12.7098 5.98587C12.7919 5.85136 12.8116 5.80516 12.8496 5.75415C12.9081 5.67959 13.008 5.71274 13.008 5.73629C12.9987 5.77788 12.9401 5.81951 12.9801 5.89439C13.0497 5.94435 13.0658 5.91221 13.107 5.90111C13.2528 5.83448 13.3622 5.53133 13.3622 5.53133C13.3686 5.41855 13.3025 5.42787 13.2597 5.4511C13.2038 5.4838 13.2001 5.49424 13.1442 5.52694C13.0729 5.53706 12.9347 5.58224 12.8663 5.48106C12.7966 5.35938 12.7956 5.18961 12.7423 5.06692C12.7423 5.05799 12.6497 4.87363 12.7359 4.86182C12.7793 4.86955 12.8721 4.89303 12.8869 4.81833C12.9325 4.74548 12.7892 4.53926 12.6912 4.43509C12.6061 4.34572 12.4881 4.33496 12.3743 4.42619C12.2946 4.49633 12.306 4.57469 12.2904 4.64898C12.2701 4.73427 12.2744 4.83921 12.365 4.95203C12.4445 5.10204 12.5897 5.29526 12.542 5.56694C12.542 5.56694 12.4572 5.69537 12.3095 5.67857C12.2479 5.66573 12.148 5.64074 12.0947 5.26393C12.0543 4.97875 12.1042 4.57969 11.9776 4.39262C11.9319 4.27966 11.8985 4.17057 11.7871 4.36379C11.7571 4.43966 11.6287 4.5548 11.7219 4.79161C11.7981 4.94173 11.8291 5.18606 11.7945 5.45796C11.7417 5.5352 11.73 5.56135 11.6607 5.63863C11.5634 5.73865 11.4579 5.71312 11.377 5.67575C11.3015 5.62706 11.2423 5.60189 11.2078 5.4472C11.2141 5.20065 11.2284 4.79702 11.1813 4.71142C11.1118 4.57881 10.9972 4.62676 10.9483 4.66684C10.7131 4.87247 10.5969 5.21943 10.5259 5.49572C10.4607 5.69706 10.3913 5.63937 10.3425 5.55812C10.2237 5.45167 10.2156 4.6191 10.0722 4.756V4.75593Z" fill="white"/>
<path fill-rule="evenodd" clip-rule="evenodd" d="M10.7637 6.12073C10.868 6.05007 10.8192 6.00071 10.9752 6.14984C11.1705 6.46913 11.2961 6.88267 11.3149 7.24903C11.3066 7.33932 11.3732 7.39644 11.4036 7.37683C11.4217 7.16487 11.9607 6.86956 12.4549 6.82639C12.5305 6.81067 12.4937 6.67216 12.5061 6.60153C12.4764 6.33916 12.6602 6.10027 12.9179 6.08121C13.2685 6.13078 13.3852 6.3098 13.3912 6.58307C13.3533 7.10767 12.7818 7.19662 12.4607 7.23845C12.4115 7.25628 12.3909 7.278 12.4607 7.3037L13.8061 7.30954L13.8747 7.34744C13.8829 7.37813 13.8551 7.35253 13.802 7.43617C13.7489 7.51981 13.6706 7.71267 13.6665 7.84145C13.2657 7.96471 12.8511 8.01871 12.4297 8.06744C12.2833 8.13824 12.2108 8.23257 12.2408 8.33874C12.2901 8.45651 12.6144 8.57414 12.6144 8.57973C12.6759 8.61665 12.7488 8.70285 12.5969 8.87944C11.9407 8.85184 11.4322 8.58476 11.2561 8.20782C11.203 8.16848 11.1459 8.2076 11.1093 8.25855C10.8531 8.57439 10.601 8.8588 10.1642 9.0098C9.90368 9.07203 9.63704 8.97158 9.51108 8.80846C9.42679 8.71561 9.42998 8.6131 9.39903 8.59088C9.25823 8.65043 8.04669 9.14272 8.20025 8.9134C8.49509 8.61158 9.00559 8.38992 9.45642 8.09205C9.48895 7.99224 9.5481 7.65463 9.72615 7.54466C9.73644 7.54547 9.69795 7.74294 9.70181 7.82619C9.70383 7.89454 9.69656 7.92133 9.71222 7.90375C9.74262 7.88519 10.2897 7.47414 10.3319 7.3481C10.3852 7.27582 10.3479 7.09276 10.3479 7.08721C10.2454 6.83437 10.1014 6.81289 10.0481 6.68727C10.0001 6.52039 10.0218 6.32991 10.1215 6.27682C10.2101 6.19994 10.315 6.20943 10.4118 6.29345C10.5223 6.38809 10.6204 6.57305 10.6488 6.71083C10.6298 6.76532 10.5042 6.67462 10.4606 6.70169C10.5378 6.77805 10.5738 6.86615 10.6016 6.97394C10.6729 7.26253 10.6512 7.37472 10.5794 7.56133C10.3366 8.04965 10.0262 8.19537 9.7546 8.37628C9.74736 8.37874 9.74255 8.50021 9.84467 8.56588C9.87989 8.60125 10.0215 8.61939 10.1881 8.56834C10.51 8.40051 10.8441 8.09131 11.01 7.74685C11.0581 7.4863 10.9914 7.21001 10.9205 6.96905C10.8138 6.73357 10.6881 6.39734 10.6881 6.39178C10.6839 6.24494 10.6964 6.194 10.7638 6.12073H10.7637ZM7.24139 4.76264C7.39623 4.83327 7.68736 4.80321 7.67505 4.56443C7.67505 4.54334 7.66942 4.4719 7.66722 4.45253C7.6356 4.38215 7.54939 4.39955 7.52983 4.47222C7.52369 4.49602 7.54079 4.5348 7.51825 4.54675C7.50531 4.55923 7.45583 4.55188 7.45789 4.48593C7.45789 4.46491 7.44171 4.44233 7.43193 4.42898C7.42215 4.42286 7.41594 4.42117 7.39822 4.42117C7.3766 4.42198 7.37697 4.42736 7.36513 4.44473C7.36009 4.46237 7.35318 4.47964 7.35318 4.49967C7.35046 4.52316 7.3412 4.53153 7.32315 4.53501C7.30296 4.53501 7.30752 4.53712 7.29116 4.52717C7.28146 4.51697 7.26933 4.5131 7.26933 4.49577C7.26933 4.47781 7.26506 4.44873 7.2594 4.43689C7.25083 4.42606 7.23705 4.42107 7.22153 4.41723C7.13698 4.41751 7.1311 4.50976 7.13598 4.54478C7.12962 4.55139 7.12606 4.71687 7.24139 4.76264Z" fill="white"/>
<path fill-rule="evenodd" clip-rule="evenodd" d="M11.7806 6.59988C11.9354 6.67051 12.304 6.62987 12.2142 6.40167C12.2142 6.38058 12.2086 6.30911 12.2064 6.28977C12.1748 6.21939 12.0886 6.23679 12.069 6.30946C12.0629 6.33326 12.08 6.37204 12.0574 6.38399C12.0445 6.39647 11.995 6.38912 11.9971 6.32317C11.9971 6.30214 11.9809 6.27957 11.9711 6.26621C11.9613 6.2601 11.9551 6.25841 11.9374 6.25841C11.9158 6.25922 11.9162 6.2646 11.9043 6.28196C11.8993 6.29961 11.8924 6.31687 11.8924 6.33691C11.8896 6.3604 11.8804 6.36877 11.8623 6.37225C11.8421 6.37225 11.8467 6.37436 11.8303 6.36441C11.8206 6.35421 11.8085 6.35034 11.8085 6.33301C11.8085 6.31505 11.8042 6.28597 11.7986 6.27412C11.79 6.2633 11.7762 6.2583 11.7607 6.25447C11.6762 6.25475 11.6703 6.347 11.6752 6.38202C11.6688 6.38863 11.6652 6.55411 11.7806 6.59988ZM14.4275 5.83945C14.5824 5.91008 14.8735 5.88002 14.8612 5.64124C14.8612 5.62015 14.8556 5.54871 14.8534 5.52934C14.8217 5.45896 14.7355 5.47636 14.716 5.54903C14.7098 5.57283 14.7269 5.61161 14.7044 5.62356C14.6915 5.63604 14.642 5.62869 14.644 5.56274C14.644 5.54171 14.6279 5.51914 14.6181 5.50578C14.6083 5.49967 14.6021 5.49798 14.5844 5.49798C14.5628 5.49879 14.5631 5.50417 14.5513 5.52154C14.5462 5.53918 14.5393 5.55644 14.5393 5.57648C14.5366 5.59997 14.5273 5.60834 14.5093 5.61182C14.4891 5.61182 14.4937 5.61393 14.4773 5.60398C14.4676 5.59378 14.4554 5.58991 14.4554 5.57258C14.4554 5.55462 14.4512 5.52554 14.4455 5.5137C14.437 5.50287 14.4232 5.49787 14.4077 5.49404C14.3231 5.49432 14.3172 5.58657 14.3221 5.62159C14.3158 5.6282 14.3122 5.79368 14.4275 5.83945ZM15.7984 7.74949C15.5286 8.04034 15.6476 8.52135 15.7085 8.62499C15.7975 8.79521 15.8691 8.90437 16.0423 8.98857C16.2 9.09956 16.3228 9.0302 16.3906 8.95247C16.5493 8.79521 16.5511 8.39369 16.6256 8.31414C16.6779 8.16799 16.8094 8.19295 16.8733 8.25771C16.9352 8.34279 17.0081 8.39763 17.099 8.44397C17.247 8.56884 17.4237 8.59162 17.5979 8.47786C17.7169 8.41402 17.7942 8.33154 17.8639 8.16782C17.9413 7.96989 17.8981 7.05519 17.8827 6.51308C17.8767 6.47054 17.7288 5.76759 17.7288 5.75975C17.7288 5.75188 17.7093 5.40098 17.693 5.31738C17.6902 5.28346 17.6814 5.27372 17.7186 5.27801C17.758 5.30975 17.7634 5.31176 17.788 5.3222C17.8278 5.32916 17.8634 5.26437 17.8394 5.20478L17.47 4.55323C17.4404 4.52531 17.4021 4.49466 17.3551 4.5611C17.3102 4.59875 17.2623 4.66692 17.2638 4.75457C17.2747 4.90897 17.3031 5.06605 17.314 5.22049L17.4618 6.01334C17.5083 6.57851 17.52 7.04106 17.5665 7.60623C17.56 7.84554 17.4822 8.05419 17.4092 8.08428C17.4092 8.08428 17.2982 8.14581 17.2238 8.07785C17.1696 8.05707 16.9529 7.73244 16.9529 7.73244C16.8421 7.6353 16.769 7.66308 16.6902 7.73244C16.4728 7.93322 16.3744 8.30879 16.2266 8.56786C16.1885 8.62569 16.0809 8.67516 15.9616 8.56364C15.6586 8.16785 15.8362 7.60468 15.7984 7.74949ZM14.497 4.45324C14.6357 4.50879 14.7336 4.77749 14.7017 4.90869C14.6741 5.07101 14.6005 5.2463 14.5476 5.22348C14.4901 5.20309 14.5868 5.06211 14.5315 4.91425C14.5008 4.81799 14.3115 4.6421 14.3315 4.59025C14.2924 4.48161 14.4119 4.43408 14.497 4.45324Z" fill="white"/>
<path fill-rule="evenodd" clip-rule="evenodd" d="M16.2451 7.9087C16.2742 7.586 16.225 7.38923 16.2162 7.19957C16.2075 7.0099 15.9919 5.56273 15.9482 5.41922C15.8954 5.14788 16.1577 5.38283 16.1291 5.22502C16.0383 5.02603 15.8125 4.73634 15.7416 4.56352C15.6989 4.48948 15.7168 4.42359 15.6213 4.54404C15.5328 4.82093 15.502 5.04727 15.5359 5.21921C15.7633 6.35441 15.9966 7.29836 15.9596 8.37902C16.0675 8.37973 16.1918 8.14295 16.2451 7.9087ZM18.6152 4.91058C18.7417 4.9707 18.8157 5.30746 18.8018 5.40368C18.7766 5.57943 18.7095 5.7692 18.6613 5.74448C18.6089 5.72241 18.6718 5.48387 18.6466 5.40969C18.6187 5.30549 18.4461 5.11508 18.4643 5.05894C18.4286 4.94134 18.5376 4.88987 18.6152 4.91058ZM9.2159 7.29839C9.33685 7.34255 9.4078 7.59001 9.39442 7.66075C9.37031 7.78984 9.30608 7.92931 9.26002 7.91116C9.20987 7.89492 9.27009 7.71963 9.24601 7.66514C9.23579 7.53295 9.06789 7.4645 9.07138 7.40741C9.04006 7.30243 9.14164 7.2831 9.2159 7.29839Z" fill="white"/>
<path fill-rule="evenodd" clip-rule="evenodd" d="M12.139 7.67002C12.2952 7.67951 12.3732 7.79665 12.2269 7.8458C12.0827 7.89302 11.944 7.92993 11.9434 8.1293C11.9968 8.40711 11.8702 8.31176 11.7947 8.27404C11.7058 8.21297 11.4562 8.06592 11.4206 7.74846C11.4153 7.67269 11.477 7.60892 11.5765 7.60938C11.7263 7.6483 11.9473 7.65114 12.139 7.67002H12.139Z" fill="#1B9D00"/>
<path fill-rule="evenodd" clip-rule="evenodd" d="M5.98255 4.37303C6.16104 4.4245 6.17159 4.67537 6.15843 4.74871C6.13464 4.88258 6.07141 5.02715 6.026 5.0083C5.97659 4.9915 6.02406 4.80977 6.00034 4.75324C5.97387 4.67386 5.82307 4.52881 5.84017 4.48606C5.8066 4.39644 5.90939 4.35721 5.98255 4.37303ZM9.50746 5.55568C9.37052 5.62652 9.31739 5.83764 9.40269 5.96061C9.48231 6.06889 9.60808 6.02875 9.62485 6.02875C9.75903 6.04481 9.83863 5.78821 9.83863 5.78821C9.83863 5.78821 9.84285 5.71607 9.68352 5.8524C9.61646 5.86443 9.60808 5.84034 9.59132 5.80424C9.57735 5.73744 9.58014 5.67064 9.61227 5.60381C9.63602 5.53969 9.5843 5.5116 9.50746 5.55568ZM10.5346 4.276C10.4658 4.32012 10.3288 4.45582 10.3246 4.6122C10.3205 4.7004 10.3033 4.70012 10.3637 4.75627C10.4073 4.81645 10.4513 4.81104 10.5394 4.76692C10.59 4.73127 10.6071 4.70761 10.6241 4.64784C10.6451 4.54765 10.5133 4.69538 10.4966 4.58386C10.4672 4.48029 10.5519 4.43789 10.6315 4.3377C10.6341 4.26904 10.6326 4.22041 10.5346 4.276ZM11.3622 4.41662C11.3325 4.47927 11.297 4.80661 11.3029 4.80661C11.2792 4.90413 11.4096 4.94586 11.4689 4.8205C11.5578 4.59068 11.5578 4.49319 11.5637 4.39567C11.5361 4.24717 11.4314 4.25181 11.3622 4.41662ZM16.5796 6.95561C16.5974 6.93859 17.3148 6.45101 17.3148 6.45101C17.388 6.42643 17.3721 6.70238 17.3385 6.70048C17.3524 6.75525 16.631 7.22395 16.5796 7.20507C16.544 7.22965 16.5085 7.01611 16.5796 6.95561H16.5796ZM17.2337 6.95139C17.3601 7.0115 17.4105 7.36528 17.3965 7.4615C17.401 7.64861 17.2746 7.79865 17.2264 7.77397C17.174 7.75189 17.231 7.5417 17.2058 7.46752C17.1779 7.36331 17.0705 7.16721 17.0886 7.11107C17.053 6.99347 17.1561 6.93068 17.2337 6.95139ZM12.9665 8.47506C13.0164 8.40531 13.1706 8.30494 13.1741 8.30494C13.2452 8.27091 13.3146 8.33162 13.3105 8.32761C13.3223 8.39568 13.2654 8.45899 13.2832 8.54973C13.2988 8.58629 13.3102 8.6269 13.3802 8.61143C13.4942 8.52572 13.5997 8.5202 13.7136 8.51475C13.8009 8.51978 13.8043 8.66111 13.7491 8.66216C13.5388 8.70586 13.4446 8.75972 13.2944 8.81453C13.2232 8.85422 13.1622 8.80387 13.1622 8.79821C13.1622 8.79255 13.1206 8.75961 13.1496 8.66947C13.1548 8.59719 13.1244 8.55757 13.0614 8.56576C13.014 8.5903 12.9722 8.60654 12.9485 8.55441C12.9391 8.51591 12.9361 8.49717 12.9665 8.47506ZM17.9884 8.66561C18.0191 8.70301 18.039 8.73764 17.9859 8.79909C17.9356 8.84318 17.9002 8.86747 17.8499 8.91156C17.8261 8.9503 17.8109 9.00908 17.8836 9.02782C18.0178 9.06389 18.328 8.87145 18.328 8.86744C18.3783 8.83137 18.3616 8.7632 18.3573 8.7632C18.328 8.73114 18.2619 8.75019 18.2174 8.74499C18.1963 8.74499 18.1268 8.73493 18.1599 8.67615C18.1874 8.63959 18.1973 8.6172 18.216 8.57212C18.237 8.52804 18.219 8.49865 18.1435 8.47457C18.0667 8.46121 18.0359 8.46789 17.9507 8.47457C17.9046 8.48392 17.8889 8.50364 17.8805 8.55708C17.8838 8.63815 17.9353 8.63354 17.9884 8.66561Z" fill="white"/>
<path fill-rule="evenodd" clip-rule="evenodd" d="M12.9941 6.67071C12.9744 6.70323 12.9079 6.70165 12.8455 6.66719C12.7832 6.63274 12.7486 6.57835 12.7682 6.5458C12.7879 6.51324 12.8544 6.51486 12.9167 6.54938C12.9791 6.58391 13.0137 6.63819 12.9941 6.67071ZM9.71947 4.78654C9.68219 4.79526 9.63348 4.76348 9.61065 4.71556C9.58782 4.66765 9.59958 4.62173 9.63683 4.61301C9.67407 4.60429 9.72281 4.63604 9.74564 4.68396C9.76848 4.73188 9.75675 4.77783 9.71947 4.78654Z" fill="#259F00"/>
<path fill-rule="evenodd" clip-rule="evenodd" d="M16.1969 13.1825C16.5407 13.1985 16.8637 13.1862 17.2075 13.2023C17.2698 13.2529 17.2253 13.3772 17.1838 13.3683C17.072 13.3656 17.0076 13.363 16.8958 13.3602C16.892 13.2555 16.6125 13.2727 16.6206 13.3636C16.4696 13.381 16.3335 13.3586 16.1826 13.3532C16.138 13.3001 16.1437 13.2044 16.197 13.1825H16.1969Z" fill="#209000"/>
</g>
</g>
<defs>
<clipPath id="clip0_1_16">
<rect width="25.0971" height="18" rx="2" fill="white"/>
</clipPath>
</defs>
</svg>
