<svg width="20" height="20" viewBox="0 0 20 20" fill="none" xmlns="http://www.w3.org/2000/svg">
<g id="share">
<path id="Vector" d="M15 11.6667C14.5076 11.67 14.0221 11.7823 13.5783 11.9955C13.1346 12.2088 12.7435 12.5177 12.4333 12.9001L8.18334 10.9417C8.38316 10.3298 8.38316 9.67026 8.18334 9.05839L12.4333 7.10005C12.9347 7.70503 13.6336 8.11345 14.4068 8.25325C15.18 8.39305 15.9777 8.25524 16.6591 7.86414C17.3406 7.47304 17.862 6.85379 18.1313 6.11567C18.4006 5.37756 18.4005 4.56804 18.1311 3.82998C17.8616 3.09191 17.3401 2.47276 16.6586 2.08178C15.9771 1.6908 15.1793 1.55313 14.4062 1.69307C13.633 1.83302 12.9342 2.24157 12.4329 2.84663C11.9317 3.4517 11.6603 4.21437 11.6667 5.00005C11.6692 5.19858 11.6887 5.39653 11.725 5.59172L7.325 7.61672C6.8559 7.15804 6.26187 6.84798 5.61734 6.72541C4.97281 6.60284 4.30644 6.67319 3.70171 6.92766C3.09699 7.18214 2.58081 7.6094 2.21784 8.15594C1.85487 8.70247 1.66125 9.34397 1.66125 10.0001C1.66125 10.6561 1.85487 11.2976 2.21784 11.8442C2.58081 12.3907 3.09699 12.818 3.70171 13.0724C4.30644 13.3269 4.97281 13.3973 5.61734 13.2747C6.26187 13.1521 6.8559 12.8421 7.325 12.3834L11.725 14.4084C11.6887 14.6036 11.6692 14.8015 11.6667 15.0001C11.6667 15.6593 11.8622 16.3038 12.2284 16.852C12.5947 17.4001 13.1153 17.8274 13.7244 18.0797C14.3335 18.3319 15.0037 18.398 15.6503 18.2693C16.2969 18.1407 16.8909 17.8233 17.357 17.3571C17.8232 16.8909 18.1407 16.297 18.2693 15.6504C18.3979 15.0038 18.3319 14.3335 18.0796 13.7244C17.8273 13.1154 17.4001 12.5948 16.8519 12.2285C16.3037 11.8622 15.6593 11.6667 15 11.6667ZM15 3.33339C15.3296 3.33339 15.6519 3.43114 15.926 3.61427C16.2 3.79741 16.4137 4.05771 16.5398 4.36225C16.6659 4.66679 16.699 5.0019 16.6346 5.32521C16.5703 5.64851 16.4116 5.94548 16.1785 6.17857C15.9454 6.41165 15.6485 6.57039 15.3252 6.6347C15.0019 6.69901 14.6667 6.666 14.3622 6.53985C14.0577 6.41371 13.7974 6.20009 13.6142 5.926C13.4311 5.65192 13.3333 5.32969 13.3333 5.00005C13.3333 4.55803 13.5089 4.1341 13.8215 3.82154C14.1341 3.50898 14.558 3.33339 15 3.33339ZM5 11.6667C4.67037 11.6667 4.34813 11.569 4.07405 11.3858C3.79997 11.2027 3.58635 10.9424 3.4602 10.6379C3.33406 10.3333 3.30105 9.99821 3.36536 9.6749C3.42967 9.3516 3.5884 9.05463 3.82149 8.82154C4.05458 8.58846 4.35155 8.42972 4.67485 8.36541C4.99815 8.3011 5.33327 8.33411 5.63781 8.46026C5.94235 8.5864 6.20265 8.80002 6.38579 9.0741C6.56892 9.34819 6.66667 9.67042 6.66667 10.0001C6.66667 10.4421 6.49108 10.866 6.17851 11.1786C5.86595 11.4911 5.44203 11.6667 5 11.6667ZM15 16.6667C14.6704 16.6667 14.3481 16.569 14.0741 16.3858C13.8 16.2027 13.5863 15.9424 13.4602 15.6379C13.3341 15.3333 13.3011 14.9982 13.3654 14.6749C13.4297 14.3516 13.5884 14.0546 13.8215 13.8215C14.0546 13.5885 14.3516 13.4297 14.6749 13.3654C14.9982 13.3011 15.3333 13.3341 15.6378 13.4603C15.9424 13.5864 16.2027 13.8 16.3858 14.0741C16.5689 14.3482 16.6667 14.6704 16.6667 15.0001C16.6667 15.4421 16.4911 15.866 16.1785 16.1786C15.866 16.4911 15.442 16.6667 15 16.6667Z" fill="white"/>
</g>
</svg>
