<svg width="12" height="13" viewBox="0 0 12 13" fill="none" xmlns="http://www.w3.org/2000/svg">
<g id="star">
<path id="Vector" fill-rule="evenodd" clip-rule="evenodd" d="M6 1.09998L7.4582 4.37838C7.51421 4.5043 7.6024 4.61323 7.7139 4.69424C7.82539 4.77526 7.95626 4.82545 8.09332 4.83982L11.6619 5.21355L8.99453 7.61347C8.89208 7.70565 8.81572 7.82318 8.77312 7.95426C8.73055 8.08531 8.72322 8.2253 8.75193 8.36008L9.49923 11.8695L6.39252 10.0743C6.27319 10.0053 6.13783 9.96904 6 9.96904C5.86218 9.96904 5.72681 10.0053 5.60748 10.0743L2.50077 11.8695L3.24807 8.36008C3.27678 8.2253 3.26945 8.08531 3.22688 7.95426C3.18428 7.82318 3.10792 7.70565 3.00547 7.61347L0.338135 5.21355L3.90669 4.83982C4.04374 4.82545 4.17461 4.77526 4.28611 4.69424C4.3976 4.61323 4.48579 4.5043 4.5418 4.37838L6 1.09998Z" fill="#F4C01E"/>
</g>
</svg>
