<svg width="24" height="24" viewBox="0 0 24 24" fill="none" xmlns="http://www.w3.org/2000/svg">
<g id="time">
<path id="Vector" d="M12.1142 22.3448C6.40969 22.3448 1.76941 17.7045 1.76941 12C1.76941 6.29543 6.40969 1.65515 12.1142 1.65515C17.8188 1.65515 22.4591 6.29543 22.4591 12C22.4591 17.7045 17.818 22.3448 12.1142 22.3448ZM12.1142 3.31032C7.32251 3.31032 3.42458 7.20825 3.42458 12C3.42458 16.7917 7.32251 20.6896 12.1142 20.6896C16.906 20.6896 20.8039 16.7917 20.8039 12C20.8039 7.20825 16.9051 3.31032 12.1142 3.31032ZM12.048 12.7614H6.73493C6.51544 12.7614 6.30494 12.6742 6.14973 12.519C5.99453 12.3638 5.90734 12.1533 5.90734 11.9338C5.90734 11.7143 5.99453 11.5038 6.14973 11.3486C6.30494 11.1934 6.51544 11.1062 6.73493 11.1062H11.2204V4.9655C11.2204 4.74601 11.3076 4.53551 11.4628 4.3803C11.618 4.2251 11.8285 4.13791 12.048 4.13791C12.2675 4.13791 12.478 4.2251 12.6332 4.3803C12.7884 4.53551 12.8756 4.74601 12.8756 4.9655V11.9338C12.8756 12.1533 12.7884 12.3638 12.6332 12.519C12.478 12.6742 12.2675 12.7614 12.048 12.7614Z" fill="#6D6D6D"/>
</g>
</svg>
